<?xml version="1.0" encoding="UTF-8"?>
<svg width="539px" height="503px" viewBox="0 0 539 503" version="1.1" xmlns="http://www.w3.org/2000/svg" xmlns:xlink="http://www.w3.org/1999/xlink">
    <!-- Generator: Sketch 40.2 (33826) - http://www.bohemiancoding.com/sketch -->
    <title>Page 1</title>
    <desc>Created with Sketch.</desc>
    <defs>
        <polygon id="path-1" points="0 503 538.872 503 538.872 0.243 0 0.243"></polygon>
    </defs>
    <g id="Page-1" stroke="none" stroke-width="1" fill="none" fill-rule="evenodd">
        <g transform="translate(0.000000, -1.000000)">
            <polygon id="Fill-1" fill="#FFFFFF" points="392.099 501.822 420.542 501.822 420.542 359.024 392.099 359.024"></polygon>
            <g id="Group-31" transform="translate(0.000000, 0.757000)">
                <path d="M372.71,93.2412 C372.71,97.7672 365.556,100.7572 359.294,100.7572 C353.038,100.7572 345.882,97.7672 345.882,93.2412 L342.169,93.2412 C342.169,100.0662 349.855,104.9292 359.294,104.9292 C368.733,104.9292 376.423,100.0662 376.423,93.2412 L372.71,93.2412 L372.71,93.2412 Z" id="Fill-2" fill="#FFFFFF"></path>
                <mask id="mask-2" fill="white">
                    <use xlink:href="#path-1"></use>
                </mask>
                <g id="Clip-5"></g>
                <polygon id="Fill-4" fill="#FFFFFF" mask="url(#mask-2)" points="384.112 87.662 406.317 87.662 406.317 82.117 384.112 82.117"></polygon>
                <path d="M360.0127,70.6054 C371.4107,70.6054 381.0777,75.3984 384.6197,82.0704 L384.6537,82.0704 L384.6537,87.6674 L333.9387,87.6674 C333.9387,78.2464 345.6167,70.6054 360.0127,70.6054" id="Fill-6" fill="#FFFFFF" mask="url(#mask-2)"></path>
                <path d="M429.8838,0.2431 L463.6808,0.2431 C465.1848,0.2431 465.7668,2.1681 464.4988,2.9721 L388.3818,51.4541 C386.7098,52.5221 384.7528,53.0911 382.7568,53.0911 L348.9618,53.0911 C347.4578,53.0911 346.8778,51.1621 348.1398,50.3581 L424.2568,1.8751 C425.9328,0.8071 427.8858,0.2431 429.8838,0.2431" id="Fill-7" fill="#FFFFFF" mask="url(#mask-2)"></path>
                <polygon id="Fill-8" fill="#FFFFFF" mask="url(#mask-2)" points="411.0322 43.124 411.0322 350.78 401.6102 350.78 401.6102 49.067"></polygon>
                <path d="M291.5147,113.3125 L16.9997,113.3125 C7.6097,113.3125 -0.0003,120.7825 -0.0003,129.9975 C-0.0003,129.9975 0.1187,197.7365 0.3387,198.8095 L0.3817,237.7985 L45.4967,212.1695 L291.5147,212.1695 C300.9017,212.1695 308.5107,204.6995 308.5107,195.4835 L308.5107,129.9975 C308.5107,120.7825 300.9017,113.3125 291.5147,113.3125" id="Fill-9" fill="#EDBF00" mask="url(#mask-2)"></path>
                <polygon id="Fill-10" fill="#2A2A2A" mask="url(#mask-2)" points="42.3311 140.288 54.2031 140.288 54.2031 156.025 69.4391 156.025 69.4391 140.288 81.3111 140.288 81.3111 182.335 69.4391 182.335 69.4391 166.356 54.2031 166.356 54.2031 182.335 42.3311 182.335"></polygon>
                <polygon id="Fill-11" fill="#2A2A2A" mask="url(#mask-2)" points="95.5718 140.288 130.0238 140.288 130.0238 150.198 107.3218 150.198 107.3218 156.567 127.8828 156.567 127.8828 165.757 107.3218 165.757 107.3218 172.425 130.3298 172.425 130.3298 182.335 95.5718 182.335"></polygon>
                <polygon id="Fill-12" fill="#2A2A2A" mask="url(#mask-2)" points="143.4263 140.288 155.2983 140.288 155.2983 172.124 176.0423 172.124 176.0423 182.335 143.4263 182.335"></polygon>
                <polygon id="Fill-13" fill="#2A2A2A" mask="url(#mask-2)" points="186.3853 140.288 198.2573 140.288 198.2573 172.124 219.0033 172.124 219.0033 182.335 186.3853 182.335"></polygon>
                <path d="M261.5322,161.4316 L261.5322,161.3126 C261.5322,155.2446 257.0652,149.9586 250.5162,149.9586 C244.0302,149.9586 239.6862,155.1246 239.6862,161.1916 L239.6862,161.3126 C239.6862,167.3786 244.1512,172.6636 250.6392,172.6636 C257.1862,172.6636 261.5322,167.4976 261.5322,161.4316 M227.5072,161.4316 L227.5072,161.3126 C227.5072,149.2376 237.4232,139.4476 250.6392,139.4476 C263.8582,139.4476 273.6492,149.1186 273.6492,161.1916 L273.6492,161.3126 C273.6492,173.3846 263.7332,183.1756 250.5162,183.1756 C237.2982,183.1756 227.5072,173.5036 227.5072,161.4316" id="Fill-14" fill="#2A2A2A" mask="url(#mask-2)"></path>
                <path d="M538.5342,253.2461 L538.4912,214.2541 L493.3762,239.8841 L54.8572,239.8841 C45.4702,239.8841 37.8602,247.3531 37.8602,256.5701 L37.8602,322.0551 C37.8602,331.2691 45.4702,338.7421 54.8572,338.7421 L521.8722,338.7421 C531.2632,338.7421 538.8722,331.2691 538.8722,322.0551 C538.8722,322.0551 538.7532,254.3191 538.5342,253.2461" id="Fill-15" fill="#EDBF00" mask="url(#mask-2)"></path>
                <polygon id="Fill-16" fill="#2A2A2A" mask="url(#mask-2)" points="81.9028 268.33 93.7748 268.33 93.7748 300.168 114.5218 300.168 114.5218 310.381 81.9028 310.381"></polygon>
                <path d="M151.5381,293.8007 L146.7651,281.8467 L141.9301,293.8007 L151.5381,293.8007 Z M141.1361,268.0297 L152.5801,268.0297 L170.8171,310.3807 L158.0881,310.3807 L154.9671,302.8717 L138.4421,302.8717 L135.3811,310.3807 L122.8951,310.3807 L141.1361,268.0297 Z" id="Fill-17" fill="#2A2A2A" mask="url(#mask-2)"></path>
                <polygon id="Fill-18" fill="#2A2A2A" mask="url(#mask-2)" points="180.354 268.33 192.898 268.33 203.122 284.609 213.339 268.33 225.886 268.33 225.886 310.381 214.074 310.381 214.074 286.233 203.122 302.691 202.874 302.691 191.981 286.351 191.981 310.381 180.354 310.381"></polygon>
                <path d="M257.3018,289.2343 C261.5248,289.2343 264.0948,287.0723 264.0948,283.7693 L264.0948,283.6473 C264.0948,280.0443 261.5248,278.1203 257.2408,278.1203 L251.6708,278.1203 L251.6708,289.2343 L257.3018,289.2343 Z M239.7978,268.3293 L258.1588,268.3293 C268.9908,268.3293 275.9698,273.7963 275.9698,283.1063 L275.9698,283.2273 C275.9698,293.1393 268.1948,298.3663 257.5458,298.3663 L251.6708,298.3663 L251.6708,310.3803 L239.7978,310.3803 L239.7978,268.3293 Z" id="Fill-19" fill="#2A2A2A" mask="url(#mask-2)"></path>
                <path d="M327.6748,289.2343 C331.8978,289.2343 334.4658,287.0723 334.4658,283.7693 L334.4658,283.6473 C334.4658,280.0443 331.8978,278.1203 327.6138,278.1203 L322.0458,278.1203 L322.0458,289.2343 L327.6748,289.2343 Z M310.1708,268.3293 L328.5318,268.3293 C339.3638,268.3293 346.3408,273.7963 346.3408,283.1063 L346.3408,283.2273 C346.3408,293.1393 338.5678,298.3663 327.9208,298.3663 L322.0458,298.3663 L322.0458,310.3803 L310.1708,310.3803 L310.1708,268.3293 Z" id="Fill-20" fill="#2A2A2A" mask="url(#mask-2)"></path>
                <path d="M389.4326,289.4746 L389.4326,289.3546 C389.4326,283.2876 384.9676,278.0006 378.4166,278.0006 C371.9306,278.0006 367.5846,283.1666 367.5846,289.2346 L367.5846,289.3546 C367.5846,295.4216 372.0516,300.7096 378.5396,300.7096 C385.0906,300.7096 389.4326,295.5436 389.4326,289.4746 M355.4056,289.4746 L355.4056,289.3546 C355.4056,277.2806 365.3216,267.4886 378.5396,267.4886 C391.7586,267.4886 401.5516,277.1606 401.5516,289.2346 L401.5516,289.3546 C401.5516,301.4276 391.6356,311.2236 378.4166,311.2236 C365.1986,311.2236 355.4056,301.5526 355.4056,289.4746" id="Fill-21" fill="#2A2A2A" mask="url(#mask-2)"></path>
                <path d="M409.4717,304.1328 L416.0807,296.3838 C420.3057,299.6888 425.0167,301.4288 429.9757,301.4288 C433.1567,301.4288 434.8697,300.3488 434.8697,298.5468 L434.8697,298.4278 C434.8697,296.6818 433.4617,295.7238 427.6477,294.4008 C418.5287,292.3588 411.4927,289.8368 411.4927,281.1858 L411.4927,281.0668 C411.4927,273.2568 417.7937,267.6108 428.0767,267.6108 C435.3607,267.6108 441.0517,269.5288 445.7017,273.1968 L439.7647,281.4248 C435.8487,278.7238 431.5677,277.2798 427.7727,277.2798 C424.8937,277.2798 423.4877,278.4838 423.4877,279.9818 L423.4877,280.1038 C423.4877,282.0278 424.9557,282.8668 430.8937,284.1908 C440.7447,286.2928 446.8647,289.4138 446.8647,297.2868 L446.8647,297.4068 C446.8647,305.9948 439.9487,311.1018 429.5437,311.1018 C421.9577,311.1018 414.7397,308.7598 409.4717,304.1328" id="Fill-22" fill="#2A2A2A" mask="url(#mask-2)"></path>
                <polygon id="Fill-23" fill="#2A2A2A" mask="url(#mask-2)" points="468.2275 278.5429 455.3755 278.5429 455.3755 268.3289 492.9525 268.3289 492.9525 278.5429 480.1005 278.5429 480.1005 310.3819 468.2275 310.3819"></polygon>
                <path d="M17.5221,368.0019 C8.2751,368.0019 0.7781,374.9799 0.7781,383.5909 L0.7781,449.7779 C0.7781,458.3909 8.2751,465.3679 17.5221,465.3679 L154.9581,465.3679 L177.3731,502.9999 L199.2301,465.3679 L337.3291,465.3679 C346.5751,465.3679 354.0691,458.3909 354.0691,449.7779 L354.0691,383.5909 C354.0691,374.9799 346.5751,368.0019 337.3291,368.0019 L17.5221,368.0019 Z" id="Fill-24" fill="#FFFFFF" mask="url(#mask-2)"></path>
                <polygon id="Fill-25" fill="#2A2A2A" mask="url(#mask-2)" points="32.4243 395.041 44.2953 395.041 44.2953 426.876 65.0403 426.876 65.0403 437.087 32.4243 437.087"></polygon>
                <path d="M105.7339,416.1826 L105.7339,416.0646 C105.7339,409.9956 101.2669,404.7116 94.7199,404.7116 C88.2339,404.7116 83.8889,409.8776 83.8889,415.9436 L83.8889,416.0646 C83.8889,422.1296 88.3559,427.4146 94.8419,427.4146 C101.3899,427.4146 105.7339,422.2496 105.7339,416.1826 M71.7109,416.1826 L71.7109,416.0646 C71.7109,403.9916 81.6249,394.1996 94.8419,394.1996 C108.0599,394.1996 117.8519,403.8696 117.8519,415.9436 L117.8519,416.0646 C117.8519,428.1376 107.9379,437.9266 94.7199,437.9266 C81.5019,437.9266 71.7109,428.2566 71.7109,416.1826" id="Fill-26" fill="#2A2A2A" mask="url(#mask-2)"></path>
                <polygon id="Fill-27" fill="#2A2A2A" mask="url(#mask-2)" points="127.0913 395.041 138.1683 395.041 155.7913 417.266 155.7913 395.041 167.5413 395.041 167.5413 437.087 157.1373 437.087 138.8413 414.021 138.8413 437.087 127.0913 437.087"></polygon>
                <path d="M194.896,426.7558 C201.994,426.7558 206.706,422.9118 206.706,416.1238 L206.706,416.0048 C206.706,409.2758 201.994,405.3718 194.896,405.3718 L190.06,405.3718 L190.06,426.7558 L194.896,426.7558 Z M178.189,395.0408 L194.71,395.0408 C210.009,395.0408 218.882,403.6908 218.882,415.8228 L218.882,415.9428 C218.882,428.0768 209.887,437.0868 194.466,437.0868 L178.189,437.0868 L178.189,395.0408 Z" id="Fill-28" fill="#2A2A2A" mask="url(#mask-2)"></path>
                <path d="M260.6182,416.1826 L260.6182,416.0646 C260.6182,409.9956 256.1512,404.7116 249.6022,404.7116 C243.1162,404.7116 238.7722,409.8776 238.7722,415.9436 L238.7722,416.0646 C238.7722,422.1296 243.2372,427.4146 249.7252,427.4146 C256.2722,427.4146 260.6182,422.2496 260.6182,416.1826 M226.5932,416.1826 L226.5932,416.0646 C226.5932,403.9916 236.5072,394.1996 249.7252,394.1996 C262.9422,394.1996 272.7332,403.8696 272.7332,415.9436 L272.7332,416.0646 C272.7332,428.1376 262.8192,437.9266 249.6022,437.9266 C236.3842,437.9266 226.5932,428.2566 226.5932,416.1826" id="Fill-29" fill="#2A2A2A" mask="url(#mask-2)"></path>
                <polygon id="Fill-30" fill="#2A2A2A" mask="url(#mask-2)" points="281.9736 395.041 293.0516 395.041 310.6746 417.266 310.6746 395.041 322.4246 395.041 322.4246 437.087 312.0226 437.087 293.7236 414.021 293.7236 437.087 281.9736 437.087"></polygon>
            </g>
        </g>
    </g>
</svg>