<?xml version="1.0" encoding="UTF-8"?>
<svg width="331px" height="186px" viewBox="0 0 331 186" version="1.1" xmlns="http://www.w3.org/2000/svg" xmlns:xlink="http://www.w3.org/1999/xlink">
    <!-- Generator: Sketch 40.2 (33826) - http://www.bohemiancoding.com/sketch -->
    <title>Artboard</title>
    <desc>Created with Sketch.</desc>
    <defs>
        <polygon id="path-1" points="0 106 254.033 106 254.033 0.614 0 0.614"></polygon>
    </defs>
    <g id="Page-1" stroke="none" stroke-width="1" fill="none" fill-rule="evenodd">
        <g id="Artboard">
            <g id="Page-1" transform="translate(38.000000, 40.000000)">
                <polygon id="Fill-1" fill="#7C7C7C" points="73.53 56.066 20.032 103.19 97.516 67.281"></polygon>
                <polygon id="Fill-2" fill="#A2A2A2" points="125.539 54.257 101.522 31.412 73.53 56.066 97.516 67.281"></polygon>
                <polygon id="Fill-3" fill="#ACACAC" points="16.5609 100.2453 68.6659 53.8433 -0.0001 21.6833"></polygon>
                <polygon id="Fill-4" fill="#5F5F5F" points="103.0711 69.8786 181.0941 106.3606 232.7721 106.3556 254.0331 0.9996"></polygon>
                <polygon id="Fill-5" fill="#4A4A4A" points="23.3649 106.386 181.0939 106.361 103.0709 69.878"></polygon>
                <polygon id="Fill-6" fill="#FFFFFF" points="136.229 76.159 136.148 79.12 125.879 79.12 125.879 64.015 135.846 64.015 135.905 67.017 129.283 67.017 129.283 70.016 134.858 70.016 134.858 72.714 129.283 72.714 129.283 76.159"></polygon>
                <polygon id="Fill-7" fill="#FFFFFF" points="147.987 76.057 147.906 79.12 138.342 79.12 138.342 64.015 141.764 64.015 141.764 76.057"></polygon>
                <polygon id="Fill-8" fill="#FFFFFF" points="149.998 79.12 153.462 79.12 153.462 64.017 149.998 64.017"></polygon>
                <polygon id="Fill-9" fill="#FFFFFF" points="155.818 79.12 155.818 76.905 161.677 68.406 162.603 67.119 162.582 67.077 155.979 67.077 156.081 64.017 166.711 64.017 166.711 66.493 160.993 74.75 160.067 76.017 160.084 76.078 166.77 76.078 166.711 79.12"></polygon>
                <path d="M174.444,68.165 L172.932,73.341 L176.778,73.341 L175.329,68.165 L174.927,66.573 L174.865,66.573 L174.444,68.165 Z M177.582,76.18 L172.106,76.18 L171.259,79.119 L167.675,79.119 L172.891,64.016 L176.94,64.016 L182.214,79.119 L178.429,79.119 L177.582,76.18 Z" id="Fill-10" fill="#FFFFFF"></path>
                <g id="Group-42" transform="translate(0.000000, 0.386000)">
                    <path d="M189.786,66.49 L187.048,66.49 L187.048,69.774 L189.866,69.774 C191.074,69.774 191.598,69.29 191.598,68.101 C191.598,66.912 191.053,66.49 189.786,66.49 L189.786,66.49 Z M189.947,72.289 L187.026,72.289 L187.026,75.952 L190.028,75.952 C191.376,75.952 191.98,75.511 191.98,74.08 C191.98,72.814 191.415,72.289 189.947,72.289 L189.947,72.289 Z M189.986,78.734 L183.764,78.734 L183.764,63.631 L189.906,63.631 C193.187,63.631 194.839,65.101 194.839,67.497 C194.839,69.188 194.034,70.234 192.826,70.739 L192.826,70.778 C194.496,71.242 195.382,72.429 195.382,74.344 C195.381,77.062 193.791,78.734 189.986,78.734 L189.986,78.734 Z" id="Fill-11" fill="#FFFFFF"></path>
                    <polygon id="Fill-13" fill="#FFFFFF" points="208.028 75.773 207.945 78.734 197.678 78.734 197.678 63.631 207.644 63.631 207.705 66.631 201.08 66.631 201.08 69.63 206.659 69.63 206.659 72.328 201.08 72.328 201.08 75.773"></polygon>
                    <polygon id="Fill-15" fill="#FFFFFF" points="216.423 66.691 216.423 78.734 212.999 78.734 212.999 66.691 208.953 66.691 209.032 63.631 220.411 63.631 220.49 66.691"></polygon>
                    <polygon id="Fill-17" fill="#FFFFFF" points="230.837 78.734 230.837 72.55 225.563 72.55 225.563 78.734 222.16 78.734 222.16 63.631 225.563 63.631 225.563 69.491 230.837 69.491 230.837 63.631 234.222 63.631 234.222 78.734"></polygon>
                    <path d="M88.028,86.564 C85.731,86.564 84.924,87.492 84.924,91.318 C84.924,95.142 85.752,96.11 88.047,96.11 C90.321,96.11 91.128,95.123 91.128,91.318 C91.128,87.492 90.343,86.564 88.028,86.564 M88.028,99.15 C83.375,99.15 81.363,96.693 81.363,91.318 C81.363,85.942 83.314,83.523 88.028,83.523 C92.758,83.523 94.672,85.942 94.672,91.318 C94.671,96.795 92.758,99.15 88.028,99.15" id="Fill-19" fill="#FFFFFF"></path>
                    <polygon id="Fill-21" fill="#FFFFFF" points="106.63 95.807 106.549 98.867 96.987 98.867 96.987 83.766 100.41 83.766 100.41 95.807"></polygon>
                    <polygon id="Fill-23" fill="#FFFFFF" points="109.389 83.767 111.925 89.484 112.548 90.975 112.61 90.975 113.214 89.464 115.651 83.767 119.376 83.767 114.241 94.055 114.241 98.867 110.777 98.867 110.777 94.055 105.562 83.767"></polygon>
                    <polygon id="Fill-25" fill="#FFFFFF" points="124.669 83.767 128.174 92.586 128.739 94.096 128.798 94.096 129.363 92.586 132.886 83.767 136.632 83.767 136.632 98.867 133.532 98.867 133.532 91.175 133.571 89.544 133.51 89.525 132.946 91.057 129.845 98.867 127.591 98.867 124.51 91.077 123.946 89.544 123.906 89.564 123.926 91.197 123.926 98.867 120.926 98.867 120.926 83.767"></polygon>
                    <path d="M144.906,86.606 L142.892,86.606 L142.892,91.236 L144.906,91.236 C146.578,91.236 147.303,90.814 147.303,88.922 C147.303,87.11 146.657,86.606 144.906,86.606 M144.906,93.954 L142.892,93.954 L142.892,98.866 L139.491,98.866 L139.491,83.765 L144.906,83.765 C149.096,83.765 150.806,85.415 150.806,88.94 C150.806,92.123 149.116,93.954 144.906,93.954" id="Fill-27" fill="#FFFFFF"></path>
                    <mask id="mask-2" fill="white">
                        <use xlink:href="#path-1"></use>
                    </mask>
                    <g id="Clip-30"></g>
                    <polygon id="Fill-29" fill="#FFFFFF" mask="url(#mask-2)" points="153.079 98.867 156.543 98.867 156.543 83.767 153.079 83.767"></polygon>
                    <path d="M169.228,87.048 C168.442,86.745 167.395,86.543 166.268,86.543 C163.529,86.543 162.623,87.652 162.623,91.235 C162.623,95.02 163.569,96.148 166.328,96.148 C167.435,96.148 168.422,95.926 169.267,95.566 L169.611,98.323 C168.623,98.807 167.173,99.149 165.844,99.149 C161.273,99.149 159.059,96.612 159.059,91.215 C159.059,86.182 161.233,83.503 166.067,83.503 C167.272,83.503 168.705,83.784 169.57,84.128 L169.228,87.048" id="Fill-31" fill="#FFFFFF" mask="url(#mask-2)"></path>
                    <path d="M182.415,86.606 L180.401,86.606 L180.401,91.236 L182.415,91.236 C184.087,91.236 184.811,90.814 184.811,88.922 C184.811,87.11 184.167,86.606 182.415,86.606 M182.415,93.954 L180.401,93.954 L180.401,98.866 L176.999,98.866 L176.999,83.765 L182.415,83.765 C186.602,83.765 188.314,85.415 188.314,88.94 C188.315,92.123 186.622,93.954 182.415,93.954" id="Fill-32" fill="#FFFFFF" mask="url(#mask-2)"></path>
                    <path d="M194.739,87.915 L193.228,93.088 L197.074,93.088 L195.624,87.915 L195.222,86.323 L195.161,86.323 L194.739,87.915 Z M197.878,95.927 L192.4,95.927 L191.556,98.866 L187.971,98.866 L193.186,83.765 L197.235,83.765 L202.51,98.866 L198.723,98.866 L197.878,95.927 Z" id="Fill-33" fill="#FFFFFF" mask="url(#mask-2)"></path>
                    <path d="M209.618,86.584 L207.462,86.584 L207.462,90.693 L209.556,90.693 C211.068,90.693 211.671,90.229 211.671,88.599 C211.67,87.069 211.107,86.584 209.618,86.584 M212.678,92.565 L216.2,98.867 L212.234,98.867 L209.596,93.23 L207.46,93.23 L207.46,98.867 L204.059,98.867 L204.059,83.767 L209.596,83.767 C213.341,83.767 215.212,85.236 215.212,88.457 C215.213,90.573 214.307,92.062 212.678,92.565" id="Fill-34" fill="#FFFFFF" mask="url(#mask-2)"></path>
                    <polygon id="Fill-35" fill="#FFFFFF" mask="url(#mask-2)" points="226.47 98.867 222.745 92.505 221.155 92.505 221.155 98.867 217.75 98.867 217.75 83.766 221.155 83.766 221.155 89.746 222.785 89.746 226.428 83.766 230.315 83.766 225.806 90.935 230.557 98.867"></polygon>
                    <path d="M198.826,52.787 C198.826,56.592 196.771,58.464 192.765,58.464 C188.777,58.464 186.662,56.592 186.662,52.787 L186.662,43.08 L190.045,43.08 L190.045,52.746 C190.045,54.578 190.871,55.386 192.765,55.386 C194.658,55.386 195.462,54.599 195.462,52.746 L195.462,43.08 L198.825,43.08 L198.825,52.787" id="Fill-36" fill="#FFFFFF" mask="url(#mask-2)"></path>
                    <polygon id="Fill-37" fill="#FFFFFF" mask="url(#mask-2)" points="211.83 55.222 211.75 58.183 201.482 58.183 201.482 43.08 211.45 43.08 211.51 46.081 204.884 46.081 204.884 49.081 210.462 49.081 210.462 51.78 204.884 51.78 204.884 55.222"></polygon>
                    <polygon id="Fill-38" fill="#FFFFFF" mask="url(#mask-2)" points="224.295 55.222 224.213 58.183 213.945 58.183 213.945 43.08 223.912 43.08 223.972 46.081 217.347 46.081 217.347 49.081 222.925 49.081 222.925 51.78 217.347 51.78 217.347 55.222"></polygon>
                    <polygon id="Fill-39" fill="#FFFFFF" mask="url(#mask-2)" points="236.213 58.183 230.356 49.947 229.448 48.599 229.407 48.619 229.427 50.248 229.427 58.183 226.407 58.183 226.407 43.08 229.308 43.08 234.682 50.872 235.59 52.223 235.63 52.202 235.59 50.591 235.59 43.08 238.589 43.08 238.589 58.183"></polygon>
                    <path d="M184.847,58.694 C184.469,58.978 183.82,59.378 182.933,59.378 C182.149,59.378 181.545,58.963 180.971,58.544 C180.233,58.007 179.4,57.398 178.013,57.398 C175.612,57.398 174.153,59.016 174.089,59.085 L175.807,60.963 L175.973,60.82 C176.297,60.544 176.933,60.078 177.836,60.078 C178.527,60.078 179.219,60.489 179.855,60.967 C180.479,61.439 181.384,62.072 183,62.072 C184.454,62.072 185.534,61.409 186.221,60.826 L184.847,58.694" id="Fill-40" fill="#FFFFFF" mask="url(#mask-2)"></path>
                    <path d="M177.899,45.875 C175.605,45.875 174.8,46.801 174.8,50.625 C174.8,54.446 175.625,55.411 177.918,55.411 C180.191,55.411 180.996,54.427 180.996,50.625 C180.996,46.801 180.212,45.875 177.899,45.875 M177.899,58.449 C173.251,58.449 171.24,55.995 171.24,50.626 C171.24,45.252 173.19,42.84 177.899,42.84 C182.625,42.84 184.537,45.252 184.537,50.626 C184.537,56.096 182.624,58.449 177.899,58.449" id="Fill-41" fill="#FFFFFF" mask="url(#mask-2)"></path>
                </g>
            </g>
        </g>
    </g>
</svg>